<?xml version="1.0" encoding="UTF-8"?>
<svg id="Layer_1" data-name="Layer 1" xmlns="http://www.w3.org/2000/svg" viewBox="0 0 1200 1200" xmlns:xlink="http://www.w3.org/1999/xlink">
    <circle cx="737.48" cy="462.52" r="51.56" />
    <circle cx="462.52" cy="462.52" r="51.56" />
    <path d="M600,136A309.38,309.38,0,0,0,290.67,445.33,616,616,0,0,0,355.87,722q11.73,23.43,25.34,45.7a620.24,620.24,0,0,0,338.16,266.55q24.78,8,50.41,14a617,617,0,0,0,88,13.68q25.5,2.1,51.55,2.13V445.33C909.33,274.49,770.84,136,600,136ZM417.72,263.06a257.79,257.79,0,0,1,364.56,0,261.31,261.31,0,0,1,28.38,33.6,170.93,170.93,0,0,0-69.25-14.59c-59.33,0-111.53,30.1-141.41,75.39-29.88-45.29-82.08-75.39-141.41-75.39a170.93,170.93,0,0,0-69.25,14.59A261.31,261.31,0,0,1,417.72,263.06ZM688.6,967.9A570,570,0,0,1,434.88,756.14a261.25,261.25,0,0,1,27.64-1.47A257.85,257.85,0,0,1,718.2,979.42Q703.29,974.08,688.6,967.9Zm169.18,42.24a563.45,563.45,0,0,1-86.39-14.57A309.12,309.12,0,0,0,631.17,753.1,309.23,309.23,0,0,0,857.78,616.35Zm-75.5-382.53a257.78,257.78,0,0,1-440-175.81q-.07-3.23-.08-6.47c0-61.59,53-111.7,116.37-111.7s114.9,50.11,114.9,111.7v120.3h53V445.33c0-61.59,51.55-111.7,114.9-111.7s116.37,50.11,116.37,111.7A256.12,256.12,0,0,1,782.28,627.61Z" />
</svg>